<svg width="854" height="538" viewBox="0 0 854 538" fill="none" xmlns="http://www.w3.org/2000/svg">
    <g clip-path="url(#clip0)">
        <path d="M733.149 434.548H92.3107C87.9362 434.543 83.7422 432.803 80.6489 429.71C77.5556 426.616 75.8157 422.422 75.8107 418.048V22.894C75.8143 19.6892 77.089 16.6166 79.3551 14.3504C81.6212 12.0841 84.6937 10.8094 87.8986 10.8057H737.352C740.612 10.8094 743.738 12.1062 746.043 14.4116C748.349 16.717 749.646 19.8427 749.649 23.103V418.048C749.644 422.422 747.904 426.616 744.811 429.71C741.718 432.803 737.524 434.543 733.149 434.548V434.548Z" fill="#CDCDCD" />
        <path d="M709.772 414.181H112.527C103.772 414.181 96.6496 407.511 96.6496 399.313V55.2079C96.6496 49.1278 101.928 44.181 108.415 44.181H713.689C720.284 44.181 725.65 49.2093 725.65 55.3895V399.313C725.65 407.511 718.527 414.181 709.772 414.181Z" fill="white" />
        <path d="M749.419 24.9502H75.5792V16.5498C75.5855 12.1607 77.3326 7.95329 80.4371 4.85068C83.5417 1.74807 87.7501 0.00359297 92.1392 -3.05176e-05H732.859C737.249 0.00357184 741.457 1.74803 744.562 4.85065C747.666 7.95326 749.413 12.1607 749.419 16.5498V24.9502Z" fill="#3BAD54" />
        <path d="M105.674 16.7834C108.04 16.7834 109.958 14.8657 109.958 12.5C109.958 10.1343 108.04 8.21658 105.674 8.21658C103.309 8.21658 101.391 10.1343 101.391 12.5C101.391 14.8657 103.309 16.7834 105.674 16.7834Z" fill="white" />
        <path d="M121.933 16.7834C124.299 16.7834 126.217 14.8657 126.217 12.5C126.217 10.1343 124.299 8.21658 121.933 8.21658C119.568 8.21658 117.65 10.1343 117.65 12.5C117.65 14.8657 119.568 16.7834 121.933 16.7834Z" fill="white" />
        <path d="M138.192 16.7834C140.558 16.7834 142.476 14.8657 142.476 12.5C142.476 10.1343 140.558 8.21658 138.192 8.21658C135.826 8.21658 133.909 10.1343 133.909 12.5C133.909 14.8657 135.826 16.7834 138.192 16.7834Z" fill="white" />
        <path d="M393.482 369.782H185.644C181.004 369.777 176.556 367.932 173.275 364.651C169.994 361.37 168.149 356.922 168.144 352.282V101.129C168.148 97.6587 169.528 94.3319 171.981 91.8783C174.435 89.4246 177.762 88.0443 181.232 88.0403H397.685C401.211 88.0443 404.59 89.4466 407.083 91.9395C409.576 94.4323 410.978 97.8122 410.982 101.338V352.282C410.977 356.922 409.132 361.37 405.851 364.651C402.57 367.932 398.122 369.777 393.482 369.782V369.782ZM181.232 90.0403C178.292 90.0436 175.474 91.213 173.395 93.2917C171.316 95.3705 170.147 98.1889 170.144 101.129V352.282C170.148 356.392 171.783 360.332 174.689 363.238C177.595 366.143 181.534 367.778 185.644 367.782H393.482C397.592 367.778 401.531 366.143 404.437 363.238C407.343 360.332 408.978 356.392 408.982 352.282V101.338C408.979 98.3425 407.788 95.4709 405.67 93.353C403.552 91.235 400.68 90.0437 397.685 90.0403H181.232Z" fill="#CCCCCC" />
        <path d="M201.644 352.282H377.482C381.726 352.282 385.795 350.597 388.796 347.596C391.797 344.596 393.482 340.526 393.482 336.282V121.735C393.482 117.491 391.797 113.421 388.796 110.421C385.795 107.42 381.726 105.735 377.482 105.735H201.644C197.4 105.735 193.331 107.42 190.33 110.421C187.329 113.421 185.644 117.491 185.644 121.735V336.282C185.644 340.526 187.329 344.596 190.33 347.596C193.331 350.597 197.4 352.282 201.644 352.282Z" fill="#CDCDCD" />
        <path d="M338.063 149.509H241.063C239.339 149.509 237.686 148.824 236.467 147.605C235.248 146.386 234.563 144.732 234.563 143.009C234.563 141.285 235.248 139.631 236.467 138.412C237.686 137.193 239.339 136.509 241.063 136.509H338.063C339.787 136.509 341.44 137.193 342.659 138.412C343.878 139.631 344.563 141.285 344.563 143.009C344.563 144.732 343.878 146.386 342.659 147.605C341.44 148.824 339.787 149.509 338.063 149.509V149.509Z" fill="white" />
        <path d="M338.063 290.509H241.063C239.339 290.509 237.686 289.824 236.467 288.605C235.248 287.386 234.563 285.732 234.563 284.009C234.563 282.285 235.248 280.631 236.467 279.412C237.686 278.193 239.339 277.509 241.063 277.509H338.063C339.787 277.509 341.44 278.193 342.659 279.412C343.878 280.631 344.563 282.285 344.563 284.009C344.563 285.732 343.878 287.386 342.659 288.605C341.44 289.824 339.787 290.509 338.063 290.509V290.509Z" fill="white" />
        <path d="M338.063 321.509H241.063C239.339 321.509 237.686 320.824 236.467 319.605C235.248 318.386 234.563 316.732 234.563 315.009C234.563 313.285 235.248 311.631 236.467 310.412C237.686 309.193 239.339 308.509 241.063 308.509H338.063C339.787 308.509 341.44 309.193 342.659 310.412C343.878 311.631 344.563 313.285 344.563 315.009C344.563 316.732 343.878 318.386 342.659 319.605C341.44 320.824 339.787 321.509 338.063 321.509V321.509Z" fill="white" />
        <path d="M290.063 245.009C311.602 245.009 329.063 227.548 329.063 206.009C329.063 184.469 311.602 167.009 290.063 167.009C268.524 167.009 251.063 184.469 251.063 206.009C251.063 227.548 268.524 245.009 290.063 245.009Z" fill="white" />
        <path d="M540.947 170.271L523.91 173.865C523.76 173.896 523.62 173.962 523.499 174.057C523.378 174.152 523.281 174.273 523.215 174.411C523.149 174.55 523.115 174.701 523.117 174.855C523.118 175.008 523.155 175.159 523.225 175.296L524.812 178.423L447.768 217.53C447.651 217.59 447.547 217.672 447.461 217.772C447.376 217.871 447.311 217.987 447.27 218.112C447.229 218.236 447.213 218.368 447.224 218.499C447.234 218.63 447.269 218.758 447.329 218.875C447.388 218.992 447.47 219.096 447.57 219.181C447.67 219.267 447.785 219.332 447.91 219.373C448.035 219.413 448.167 219.429 448.297 219.419C448.428 219.409 448.556 219.373 448.673 219.314L525.718 180.206L527.305 183.334C527.374 183.471 527.474 183.59 527.597 183.682C527.72 183.774 527.862 183.836 528.013 183.865C528.164 183.893 528.319 183.886 528.467 183.844C528.614 183.803 528.75 183.728 528.865 183.626L541.822 171.994C541.985 171.847 542.096 171.65 542.137 171.434C542.177 171.217 542.145 170.994 542.045 170.797C541.946 170.601 541.784 170.443 541.585 170.348C541.387 170.253 541.162 170.226 540.947 170.271Z" fill="#CDCDCD" />
        <path d="M540.947 267.478L523.91 263.885C523.76 263.853 523.62 263.787 523.499 263.692C523.378 263.598 523.281 263.476 523.215 263.338C523.149 263.2 523.115 263.048 523.117 262.895C523.118 262.741 523.155 262.59 523.225 262.454L524.812 259.326L447.768 220.219C447.651 220.159 447.547 220.078 447.461 219.978C447.376 219.878 447.311 219.763 447.27 219.638C447.229 219.513 447.213 219.381 447.224 219.25C447.234 219.119 447.269 218.992 447.329 218.875C447.388 218.758 447.47 218.653 447.57 218.568C447.67 218.482 447.785 218.418 447.91 218.377C448.035 218.336 448.167 218.32 448.297 218.33C448.428 218.34 448.556 218.376 448.673 218.436L525.718 257.543L527.305 254.415C527.374 254.278 527.474 254.159 527.597 254.068C527.72 253.976 527.862 253.913 528.013 253.885C528.164 253.857 528.319 253.864 528.467 253.905C528.614 253.946 528.75 254.021 528.865 254.124L541.822 265.755C541.985 265.902 542.096 266.099 542.137 266.316C542.177 266.532 542.145 266.756 542.045 266.952C541.946 267.148 541.784 267.306 541.585 267.401C541.387 267.496 541.162 267.523 540.947 267.478V267.478Z" fill="#CDCDCD" />
        <path d="M597.102 192.526C592.751 192.526 588.498 191.235 584.88 188.818C581.262 186.4 578.442 182.965 576.777 178.945C575.112 174.925 574.676 170.501 575.525 166.234C576.374 161.966 578.469 158.046 581.546 154.969C584.623 151.892 588.543 149.797 592.81 148.948C597.078 148.099 601.501 148.535 605.521 150.2C609.541 151.865 612.977 154.685 615.395 158.303C617.812 161.921 619.102 166.174 619.102 170.526C619.096 176.358 616.776 181.95 612.651 186.075C608.527 190.199 602.935 192.519 597.102 192.526V192.526ZM597.102 150.526C593.147 150.526 589.28 151.699 585.991 153.896C582.702 156.094 580.139 159.217 578.625 162.872C577.111 166.526 576.715 170.548 577.487 174.427C578.258 178.307 580.163 181.871 582.96 184.668C585.757 187.465 589.321 189.37 593.201 190.141C597.08 190.913 601.102 190.517 604.756 189.003C608.411 187.489 611.534 184.926 613.732 181.637C615.929 178.348 617.102 174.481 617.102 170.526C617.096 165.223 614.987 160.139 611.238 156.39C607.488 152.641 602.405 150.532 597.102 150.526V150.526Z" fill="#51A35E" />
        <path d="M597.102 289.526C592.751 289.526 588.498 288.235 584.88 285.818C581.262 283.4 578.442 279.965 576.777 275.945C575.112 271.925 574.676 267.501 575.525 263.234C576.374 258.966 578.469 255.046 581.546 251.969C584.623 248.892 588.543 246.797 592.81 245.948C597.078 245.099 601.501 245.535 605.521 247.2C609.541 248.865 612.977 251.685 615.395 255.303C617.812 258.921 619.102 263.174 619.102 267.526C619.096 273.358 616.776 278.95 612.651 283.075C608.527 287.199 602.935 289.519 597.102 289.526V289.526ZM597.102 247.526C593.147 247.526 589.28 248.699 585.991 250.896C582.702 253.094 580.139 256.217 578.625 259.872C577.111 263.526 576.715 267.548 577.487 271.427C578.258 275.307 580.163 278.871 582.96 281.668C585.757 284.465 589.321 286.37 593.201 287.141C597.08 287.913 601.102 287.517 604.756 286.003C608.411 284.489 611.534 281.926 613.732 278.637C615.929 275.348 617.102 271.481 617.102 267.526C617.096 262.223 614.987 257.139 611.238 253.39C607.488 249.641 602.405 247.532 597.102 247.526V247.526Z" fill="#CE2828" />
        <path d="M595.359 181.366C594.723 181.367 594.104 181.162 593.596 180.781L593.564 180.757L586.924 175.677C586.616 175.442 586.358 175.148 586.165 174.812C585.971 174.477 585.845 174.106 585.794 173.722C585.743 173.338 585.769 172.947 585.869 172.573C585.969 172.199 586.142 171.848 586.378 171.54C586.613 171.233 586.907 170.975 587.243 170.781C587.578 170.587 587.949 170.461 588.333 170.41C588.717 170.359 589.107 170.385 589.482 170.485C589.856 170.585 590.207 170.758 590.515 170.994L594.816 174.292L604.979 161.033C605.215 160.725 605.508 160.467 605.844 160.274C606.179 160.08 606.549 159.954 606.933 159.903C607.317 159.852 607.708 159.878 608.082 159.978C608.456 160.078 608.807 160.251 609.114 160.487L609.115 160.487L609.052 160.575L609.117 160.487C609.737 160.964 610.143 161.667 610.245 162.443C610.347 163.218 610.138 164.002 609.662 164.623L597.708 180.212C597.432 180.571 597.076 180.862 596.669 181.062C596.262 181.261 595.815 181.364 595.361 181.363L595.359 181.366Z" fill="#51A35E" />
        <path d="M587.556 277.071C587.417 276.932 587.307 276.767 587.231 276.585C587.156 276.403 587.117 276.208 587.117 276.011C587.117 275.814 587.156 275.619 587.231 275.437C587.307 275.255 587.417 275.089 587.556 274.95L604.527 257.98C604.808 257.699 605.19 257.541 605.587 257.541C605.985 257.541 606.367 257.699 606.648 257.98C606.929 258.261 607.087 258.643 607.087 259.04C607.087 259.438 606.929 259.82 606.648 260.101L589.678 277.071C589.538 277.211 589.373 277.321 589.191 277.397C589.009 277.472 588.814 277.511 588.617 277.511C588.42 277.511 588.225 277.472 588.043 277.397C587.861 277.321 587.696 277.211 587.556 277.071Z" fill="#CE2828" />
        <path d="M605.648 277.071C605.788 276.932 605.898 276.767 605.974 276.585C606.049 276.403 606.088 276.208 606.088 276.011C606.088 275.814 606.049 275.619 605.974 275.437C605.898 275.255 605.788 275.089 605.648 274.95L588.678 257.98C588.396 257.699 588.015 257.541 587.617 257.541C587.22 257.541 586.838 257.699 586.557 257.98C586.276 258.261 586.118 258.643 586.118 259.04C586.118 259.438 586.275 259.82 586.556 260.101L603.527 277.071C603.666 277.211 603.832 277.321 604.014 277.397C604.196 277.472 604.391 277.511 604.588 277.511C604.785 277.511 604.98 277.472 605.162 277.397C605.344 277.321 605.509 277.211 605.648 277.071V277.071Z" fill="#CE2828" />
        <path d="M635.09 219.679C635.025 219.679 634.96 219.674 634.896 219.665C634.723 219.64 634.557 219.581 634.407 219.492C634.257 219.402 634.126 219.284 634.022 219.144L625.847 208.182C625.812 208.135 625.766 208.099 625.713 208.076C625.66 208.053 625.602 208.045 625.544 208.051C625.487 208.058 625.432 208.08 625.386 208.115C625.339 208.149 625.303 208.195 625.28 208.249L621.088 218.055C620.979 218.311 620.793 218.525 620.556 218.669C620.319 218.813 620.042 218.879 619.765 218.859C619.489 218.838 619.225 218.731 619.013 218.552C618.8 218.374 618.648 218.134 618.578 217.865L610.214 185.49C610.148 185.235 610.16 184.965 610.247 184.716C610.335 184.467 610.495 184.25 610.707 184.092C610.918 183.934 611.172 183.843 611.436 183.83C611.7 183.817 611.961 183.883 612.188 184.019L640.828 201.274C641.066 201.417 641.253 201.631 641.363 201.886C641.473 202.141 641.5 202.424 641.441 202.695C641.382 202.966 641.24 203.212 641.034 203.398C640.828 203.585 640.57 203.702 640.294 203.734L629.702 204.952C629.645 204.958 629.59 204.98 629.544 205.015C629.497 205.049 629.461 205.095 629.438 205.148C629.415 205.202 629.406 205.26 629.413 205.317C629.42 205.375 629.441 205.43 629.476 205.476L637.65 216.438C637.861 216.72 637.95 217.075 637.899 217.424C637.849 217.773 637.662 218.087 637.379 218.298L635.882 219.415C635.654 219.586 635.376 219.679 635.09 219.679V219.679Z" fill="#0E0E0E" />
        <path d="M681.602 243.526H645.602C642.95 243.526 640.407 242.472 638.531 240.597C636.656 238.721 635.602 236.178 635.602 233.526C635.602 230.873 636.656 228.33 638.531 226.454C640.407 224.579 642.95 223.526 645.602 223.526H681.602C684.255 223.526 686.798 224.579 688.673 226.454C690.549 228.33 691.602 230.873 691.602 233.526C691.602 236.178 690.549 238.721 688.673 240.597C686.798 242.472 684.255 243.526 681.602 243.526V243.526Z" fill="#3BAD54" />
        <path d="M245.323 174.415L243.825 173.298C243.543 173.087 243.356 172.773 243.305 172.424C243.254 172.075 243.344 171.721 243.554 171.438L251.729 160.476C251.763 160.43 251.785 160.375 251.792 160.318C251.799 160.26 251.79 160.202 251.767 160.149C251.744 160.095 251.708 160.049 251.661 160.015C251.615 159.98 251.56 159.958 251.502 159.952L240.911 158.734C240.635 158.702 240.376 158.585 240.171 158.398C239.965 158.212 239.823 157.966 239.764 157.695C239.705 157.424 239.732 157.141 239.842 156.886C239.952 156.631 240.139 156.417 240.377 156.274L269.017 139.019C269.243 138.883 269.505 138.817 269.769 138.83C270.032 138.843 270.286 138.934 270.498 139.092C270.71 139.25 270.87 139.467 270.957 139.716C271.045 139.965 271.057 140.235 270.991 140.49L262.626 172.865C262.557 173.134 262.405 173.374 262.192 173.552C261.979 173.731 261.716 173.838 261.439 173.859C261.163 173.879 260.886 173.813 260.649 173.669C260.412 173.525 260.226 173.311 260.117 173.055L255.925 163.249C255.902 163.195 255.866 163.149 255.819 163.115C255.773 163.08 255.718 163.058 255.661 163.051C255.603 163.045 255.545 163.053 255.492 163.076C255.439 163.099 255.392 163.135 255.358 163.182L247.183 174.144C247.079 174.284 246.948 174.402 246.798 174.492C246.648 174.581 246.482 174.64 246.309 174.665C246.245 174.674 246.18 174.679 246.115 174.679C245.829 174.679 245.551 174.586 245.323 174.415V174.415Z" fill="#3F3D56" />
        <path d="M189.602 188.526C189.605 185.874 190.66 183.332 192.535 181.458C194.409 179.583 196.951 178.529 199.602 178.526H235.602C238.255 178.526 240.798 179.579 242.673 181.454C244.549 183.33 245.602 185.873 245.602 188.526C245.602 191.178 244.549 193.721 242.673 195.597C240.798 197.472 238.255 198.526 235.602 198.526H199.602C196.951 198.523 194.409 197.468 192.535 195.593C190.66 193.719 189.605 191.177 189.602 188.526V188.526Z" fill="#3F3D56" />
        <path d="M723.351 369.796C724.435 368.803 725.287 367.584 725.849 366.225C726.41 364.866 726.667 363.401 726.601 361.933C726.535 360.464 726.148 359.028 725.467 357.725C724.785 356.422 723.827 355.285 722.659 354.392L733.838 320.451L715.916 325.311L708.047 356.797C706.678 358.859 706.113 361.352 706.46 363.803C706.806 366.253 708.039 368.492 709.925 370.094C711.812 371.696 714.22 372.551 716.695 372.496C719.169 372.441 721.538 371.481 723.351 369.796V369.796Z" fill="#A0616A" />
        <path d="M830.854 367.796C829.77 366.803 828.917 365.584 828.356 364.225C827.794 362.866 827.538 361.401 827.604 359.933C827.67 358.464 828.057 357.028 828.738 355.725C829.419 354.422 830.378 353.285 831.546 352.392L820.366 318.451L838.289 323.311L846.158 354.797C847.526 356.859 848.091 359.352 847.745 361.803C847.399 364.253 846.166 366.492 844.279 368.094C842.393 369.696 839.984 370.551 837.51 370.496C835.035 370.441 832.667 369.481 830.854 367.796V367.796Z" fill="#A0616A" />
        <path d="M778.323 198.249C791.887 198.249 802.884 187.253 802.884 173.688C802.884 160.124 791.887 149.127 778.323 149.127C764.758 149.127 753.762 160.124 753.762 173.688C753.762 187.253 764.758 198.249 778.323 198.249Z" fill="#A0616A" />
        <path d="M755.138 525.359H742.879L737.046 478.071H755.141L755.138 525.359Z" fill="#A0616A" />
        <path d="M758.265 537.243L718.734 537.242V536.742C718.734 534.721 719.132 532.72 719.906 530.854C720.679 528.987 721.812 527.291 723.241 525.862C724.67 524.433 726.366 523.3 728.233 522.527C730.099 521.753 732.1 521.355 734.121 521.355H734.122L758.266 521.356L758.265 537.243Z" fill="#2F2E41" />
        <path d="M797.138 525.359H784.879L779.046 478.071H797.141L797.138 525.359Z" fill="#A0616A" />
        <path d="M800.265 537.243L760.734 537.242V536.742C760.734 534.721 761.132 532.72 761.906 530.854C762.679 528.987 763.812 527.291 765.241 525.862C766.67 524.433 768.366 523.3 770.233 522.527C772.099 521.753 774.1 521.355 776.121 521.355H776.122L800.266 521.356L800.265 537.243Z" fill="#2F2E41" />
        <path d="M754.938 511.537L740.537 511.497C739.92 511.576 739.293 511.524 738.697 511.345C738.101 511.166 737.55 510.863 737.078 510.457C736.596 510.046 736.207 509.538 735.935 508.966C735.663 508.393 735.515 507.77 735.5 507.137L737.159 347.761L803.615 347.097L799.76 505.962C799.738 507.139 799.254 508.259 798.412 509.081C797.57 509.903 796.438 510.36 795.261 510.354H780.412C779.246 510.357 778.125 509.907 777.286 509.099C776.447 508.29 775.955 507.187 775.915 506.023L772.321 410.673C772.322 410.609 772.309 410.545 772.285 410.485C772.26 410.426 772.224 410.372 772.178 410.327C772.132 410.282 772.077 410.247 772.017 410.223C771.957 410.2 771.893 410.189 771.828 410.192C771.7 410.188 771.575 410.234 771.48 410.322C771.385 410.409 771.329 410.53 771.322 410.658L758.817 507.412C758.74 508.44 758.313 509.41 757.607 510.161C756.901 510.911 755.959 511.397 754.938 511.537Z" fill="#2F2E41" />
        <path d="M767.337 358.618C757.518 358.618 747.141 356.864 737.774 351.736C737.073 351.353 736.486 350.792 736.071 350.109C735.656 349.427 735.429 348.647 735.412 347.849L734.102 275.111L732.259 259.546C731.154 250.288 732.803 240.909 737 232.583C741.198 224.257 747.757 217.354 755.857 212.736L756.709 212.251L759.107 206.654C759.302 206.192 759.633 205.8 760.056 205.529C760.479 205.259 760.974 205.124 761.476 205.141L793.719 206.062C794.231 206.078 794.726 206.25 795.137 206.556C795.548 206.861 795.856 207.285 796.019 207.771L797.517 212.264C805.792 217.014 812.433 224.161 816.563 232.762C820.694 241.363 822.121 251.014 820.655 260.443L807.439 347.911C807.32 348.698 806.995 349.44 806.496 350.06C805.997 350.68 805.343 351.157 804.599 351.442C798.751 353.663 783.835 358.618 767.337 358.618Z" fill="black" />
        <path d="M830.344 348.755C829.839 348.754 829.346 348.602 828.929 348.316C828.513 348.031 828.192 347.627 828.008 347.156L811.636 304.782L798.247 238.766C797.741 236.275 797.976 233.691 798.922 231.332C799.868 228.973 801.485 226.943 803.572 225.492V225.492C805.375 224.238 807.465 223.46 809.649 223.231C811.833 223.002 814.04 223.33 816.064 224.183C818.087 225.036 819.862 226.387 821.223 228.11C822.585 229.833 823.488 231.873 823.849 234.039L827.595 256.52L846.177 342.577C846.312 343.217 846.192 343.885 845.842 344.437C845.493 344.99 844.941 345.385 844.305 345.537L830.913 348.689C830.726 348.733 830.536 348.755 830.344 348.755V348.755Z" fill="black" />
        <path d="M724.86 348.755C724.669 348.755 724.478 348.733 724.292 348.689L710.899 345.537C710.263 345.385 709.712 344.99 709.362 344.437C709.013 343.885 708.893 343.217 709.028 342.577L727.614 256.496L731.356 234.039C731.717 231.873 732.62 229.833 733.981 228.11C735.342 226.387 737.117 225.036 739.141 224.183C741.165 223.33 743.371 223.002 745.555 223.231C747.739 223.46 749.83 224.238 751.633 225.492V225.492C753.72 226.943 755.336 228.973 756.283 231.332C757.229 233.691 757.464 236.275 756.958 238.766L743.592 304.701L727.197 347.157C727.013 347.628 726.692 348.032 726.275 348.317C725.858 348.602 725.365 348.754 724.86 348.755V348.755Z" fill="black" />
        <path d="M797.44 197.119C795.166 198.427 786.177 199.295 785.537 196.751L785.523 196.695C785.078 194.831 785.448 192.884 785.576 190.972C785.704 189.059 785.516 186.958 784.214 185.552C781.786 182.931 777.466 184.321 773.956 183.658C771.899 183.199 770.08 182.006 768.84 180.303C767.599 178.6 767.022 176.503 767.216 174.405C767.266 174.007 767.344 173.61 767.432 173.212C767.651 172.204 767.634 171.159 767.382 170.159C767.13 169.159 766.65 168.231 765.978 167.448C765.307 166.665 764.464 166.049 763.514 165.646C762.564 165.244 761.534 165.068 760.505 165.131C756.957 165.333 753.127 166.408 750.192 163.78C747.921 161.748 747.368 156.458 748.365 153.579C750.041 148.741 760.779 146.208 765.467 144.815C771.265 143.14 777.364 142.778 783.319 143.755C789.275 144.732 794.938 147.025 799.897 150.465C802.858 152.552 805.624 155.175 806.886 158.571C808.148 161.967 807.539 166.251 804.693 168.493C806.899 170.828 808.453 173.703 809.198 176.828C809.943 179.953 809.854 183.219 808.939 186.299C807.534 190.829 800.825 195.171 797.44 197.119Z" fill="#2F2E41" />
        <path d="M113.569 333.109C112.106 332.962 110.693 332.496 109.43 331.744C108.167 330.992 107.084 329.972 106.258 328.756C105.432 327.54 104.882 326.158 104.648 324.707C104.414 323.255 104.5 321.77 104.902 320.356L75.6278 299.862L92.8931 293.026L118.045 313.535C120.376 314.367 122.321 316.026 123.511 318.196C124.701 320.366 125.053 322.898 124.501 325.311C123.95 327.723 122.532 329.85 120.517 331.287C118.502 332.725 116.03 333.373 113.569 333.109Z" fill="#FFB8B8" />
        <path d="M97.6715 317.531L71.1605 302.155C68.4969 300.65 66.1756 298.606 64.3444 296.155C62.5131 293.704 61.2118 290.899 60.5233 287.918C59.9015 285.097 59.8643 282.179 60.414 279.344C60.9638 276.508 62.0888 273.815 63.7196 271.431L85.6658 239.06C87.2182 236.77 89.5786 235.151 92.2742 234.528C94.9698 233.904 97.8014 234.323 100.202 235.699C102.602 237.075 104.394 239.307 105.218 241.948C106.041 244.589 105.837 247.444 104.645 249.941L87.5079 285.846L104.868 301.133C105.468 301.662 105.917 302.342 106.167 303.102C106.418 303.862 106.461 304.675 106.293 305.458L104.328 314.585C104.182 315.28 103.872 315.931 103.424 316.482C102.975 317.033 102.401 317.469 101.75 317.753C101.102 318.044 100.393 318.175 99.6838 318.137C98.9743 318.098 98.2843 317.891 97.6714 317.531L97.6715 317.531Z" fill="#4B4499" />
        <path d="M217.795 245.6C217.35 247.001 216.603 248.288 215.608 249.369C214.612 250.45 213.391 251.3 212.031 251.859C210.671 252.418 209.205 252.671 207.737 252.602C206.269 252.533 204.833 252.142 203.532 251.458L177.455 275.892L174.316 257.59L199.56 237.193C200.854 235.083 202.877 233.521 205.245 232.803C207.614 232.085 210.163 232.261 212.411 233.297C214.659 234.333 216.448 236.158 217.441 238.425C218.433 240.693 218.559 243.246 217.795 245.6V245.6Z" fill="#FFB8B8" />
        <path d="M110.992 213.525C124.556 213.525 135.553 202.529 135.553 188.964C135.553 175.399 124.556 164.403 110.992 164.403C97.4269 164.403 86.4305 175.399 86.4305 188.964C86.4305 202.529 97.4269 213.525 110.992 213.525Z" fill="#FFB8B8" />
        <path d="M183.308 524.961L195.059 521.465L187.165 474.477L169.822 479.637L183.308 524.961Z" fill="#FFB8B8" />
        <path d="M179.169 522.016L202.311 515.131L202.312 515.13C204.248 514.554 206.279 514.365 208.289 514.574C210.299 514.783 212.248 515.385 214.025 516.347C215.802 517.309 217.372 518.612 218.645 520.181C219.918 521.75 220.87 523.554 221.447 525.49L221.589 525.97L183.7 537.243L179.169 522.016Z" fill="#2F2E41" />
        <path d="M54.57 524.359H66.829L72.662 477.071H60.568L54.57 524.359Z" fill="#FFB8B8" />
        <path d="M51.4425 520.356L75.5863 520.355H75.5873C77.6078 520.355 79.6086 520.753 81.4754 521.527C83.3422 522.3 85.0384 523.433 86.4672 524.862C87.896 526.291 89.0293 527.987 89.8026 529.854C90.5758 531.72 90.9738 533.721 90.9738 535.742V536.242L51.4432 536.243L51.4425 520.356Z" fill="#2F2E41" />
        <path d="M174.537 508.036L128.551 375.709C128.454 375.418 128.269 375.164 128.021 374.984C127.773 374.803 127.475 374.705 127.169 374.702C126.861 374.685 126.556 374.767 126.299 374.937C126.042 375.107 125.846 375.355 125.742 375.644L72.7525 508.112C72.4073 508.984 71.7973 509.725 71.0086 510.231C70.2199 510.738 69.2921 510.984 68.356 510.935L54.5255 510.264C53.8595 510.232 53.209 510.052 52.621 509.738C52.0331 509.423 51.5224 508.982 51.1259 508.446C50.7294 507.91 50.4569 507.292 50.3283 506.638C50.1997 505.984 50.2181 505.309 50.3822 504.663L100.505 307.119L150.792 303.015L151.121 303.489C151.392 303.882 178.299 343.492 178.282 411.879L195.523 505.745C195.642 506.394 195.617 507.061 195.45 507.699C195.283 508.338 194.977 508.931 194.555 509.438C194.132 509.945 193.604 510.353 193.006 510.633C192.409 510.913 191.757 511.058 191.097 511.058H178.788C177.853 511.058 176.942 510.767 176.18 510.225C175.419 509.684 174.844 508.918 174.537 508.036Z" fill="#2F2E41" />
        <path d="M82.5809 262.312C80.8116 257.247 80.3749 251.811 81.3126 246.528C82.2503 241.244 84.5309 236.291 87.9354 232.143C91.2607 228.019 95.5904 224.82 100.509 222.851C105.427 220.883 110.769 220.212 116.021 220.903C116.438 220.959 116.852 221.015 117.264 221.072C123.95 221.975 130.164 225.015 134.98 229.74C139.796 234.464 142.955 240.62 143.985 247.287L153.377 307.016L99.8363 311.057L99.452 311.086L82.5809 262.312Z" fill="#4B4499" />
        <path d="M160.71 286.549C157.78 286.448 154.903 285.74 152.262 284.468C149.621 283.196 147.273 281.388 145.368 279.16L120.041 249.801C118.076 247.599 117.048 244.718 117.176 241.77C117.255 240.229 117.662 238.723 118.369 237.351C119.075 235.98 120.067 234.775 121.276 233.816C123.272 232.223 125.76 231.375 128.314 231.418C130.867 231.461 133.326 232.393 135.267 234.053L165.471 259.938L184.053 247.012C184.719 246.547 185.499 246.272 186.31 246.216C187.12 246.16 187.931 246.324 188.655 246.691L197.549 251.193C198.184 251.515 198.734 251.983 199.154 252.559C199.573 253.135 199.85 253.803 199.961 254.506C200.072 255.21 200.014 255.93 199.793 256.607C199.571 257.284 199.192 257.899 198.687 258.401L176.574 280.363C174.603 282.334 172.262 283.896 169.686 284.96C167.11 286.024 164.35 286.57 161.563 286.564C161.279 286.564 160.995 286.559 160.71 286.549Z" fill="#4B4499" />
        <path d="M129.668 182.83C132.727 184.016 135.949 184.725 139.223 184.932C142.516 184.974 146.016 183.833 147.818 181.325C148.509 180.23 148.955 178.998 149.126 177.714C149.297 176.43 149.188 175.124 148.807 173.886C148.124 171.376 146.897 169.048 145.211 167.068C143.525 165.087 141.423 163.503 139.054 162.429C136.565 161.3 133.878 160.674 131.147 160.586C128.415 160.498 125.693 160.95 123.137 161.916C121.289 156.299 114.329 153.241 107.886 153.069C94.7266 152.715 82.9599 161.688 77.2424 172.478C71.5248 183.268 70.6895 195.601 70.334 207.575C70.2473 210.495 70.211 213.54 71.5942 216.177C73.6541 220.102 78.3349 222.216 82.7467 223.893C94.3162 228.282 106.252 231.637 118.414 233.919C112.574 230.186 110.722 222.152 114.421 216.6C116.231 213.883 119.202 211.621 119.683 208.474C120.26 204.701 117.04 201.402 115.85 197.75C115.248 195.773 115.221 193.666 115.771 191.674C116.322 189.682 117.427 187.888 118.959 186.5C120.626 185.052 122.619 184.029 124.768 183.52C126.916 183.01 129.157 183.029 131.296 183.574" fill="#2F2E41" />
        <path d="M249 537.526H1C0.734784 537.526 0.480429 537.42 0.292892 537.233C0.105356 537.045 0 536.791 0 536.526C0 536.26 0.105356 536.006 0.292892 535.818C0.480429 535.631 0.734784 535.526 1 535.526H249C249.265 535.526 249.52 535.631 249.707 535.818C249.895 536.006 250 536.26 250 536.526C250 536.791 249.895 537.045 249.707 537.233C249.52 537.42 249.265 537.526 249 537.526Z" fill="#CCCCCC" />
        <path d="M853 537.526H677C676.735 537.526 676.48 537.42 676.293 537.233C676.105 537.045 676 536.791 676 536.526C676 536.26 676.105 536.006 676.293 535.818C676.48 535.631 676.735 535.526 677 535.526H853C853.265 535.526 853.52 535.631 853.707 535.818C853.895 536.006 854 536.26 854 536.526C854 536.791 853.895 537.045 853.707 537.233C853.52 537.42 853.265 537.526 853 537.526Z" fill="#CCCCCC" />
    </g>
    <defs>
        <clipPath id="clip0">
            <rect width="854" height="537.526" fill="white" />
        </clipPath>
    </defs>
</svg>
